<svg width="32" height="32" viewBox="0 0 32 32" fill="none" xmlns="http://www.w3.org/2000/svg">
<path d="M14.9747 4.148C15.257 3.99473 15.5996 4.01196 15.866 4.19188C15.6704 4.07653 20.531 7.00303 21.101 7.3392C21.5845 7.66664 21.5845 8.48007 21.101 8.80751C21.4411 8.60691 16.042 11.7922 15.866 11.896C15.5998 12.0759 15.2572 12.0932 14.9747 11.9399C14.6922 11.7864 14.5158 11.4875 14.5158 11.1616V9.77305C13.0975 10.1827 11.818 10.9191 10.7556 11.896L10.0682 10.044L8.46362 9.22047C10.1456 7.69475 12.2199 6.60672 14.5158 6.13308V4.92627C14.5158 4.60044 14.6922 4.30149 14.9747 4.148Z" fill="#777777"/>
<path d="M2.01357 15.2287C1.95709 14.9124 2.07961 14.5904 2.33139 14.3909C2.16226 14.5425 6.42126 10.7944 6.91409 10.3528C7.3719 9.99104 8.13648 10.2395 8.29422 10.8012C8.21121 10.4151 9.52982 16.5441 9.57285 16.7438C9.65937 17.053 9.56925 17.3855 9.33753 17.6084C9.10561 17.8313 8.76988 17.9085 8.46361 17.809L7.15843 17.3849C7.10333 18.8645 7.39858 20.3113 7.98711 21.6242L6 21.5001L4.76105 22.996C3.84887 20.9237 3.46983 18.6105 3.73705 16.2732L2.60271 15.9046C2.29645 15.8051 2.07019 15.5454 2.01357 15.2287Z" fill="#777777"/>
<path d="M8.19993 30.6021C7.89241 30.5088 7.66118 30.2535 7.59775 29.9386C7.65604 30.1581 6.24998 24.6617 6.08025 24.0221C5.96575 23.4499 6.53421 22.8815 7.10637 22.996C6.72466 22.8946 12.7843 24.5022 12.9818 24.5546C13.2965 24.6178 13.5518 24.8491 13.6453 25.1568C13.7386 25.4646 13.6549 25.7988 13.4272 26.0265L12.4568 26.9969C13.7501 27.7177 15.1733 28.1115 16.6103 28.1831L15.7828 29.9386L16.368 31.6803C14.1074 31.5523 11.8742 30.8398 9.91302 29.5406L9.06964 30.384C8.84194 30.6117 8.50777 30.6954 8.19993 30.6021Z" fill="#777777"/>
<path d="M25.3472 30.5895C25.1706 30.858 24.8602 31.0073 24.5402 30.9789C24.7672 30.9852 19.0977 30.7754 18.4362 30.7569C17.8551 30.7045 17.4711 29.9982 17.7431 29.482C17.5377 29.8193 20.7972 24.4641 20.9034 24.2895C21.0533 24.0056 21.3474 23.8263 21.6689 23.8239C21.9906 23.8217 22.2873 23.9966 22.4412 24.2796L23.0967 25.4852C24.1545 24.4493 24.9356 23.1962 25.4117 21.8384L26.5 23.1106L28.6967 23.0623C27.9331 25.1938 26.6168 27.1334 24.815 28.6458L25.3847 29.6937C25.5385 29.9766 25.524 30.3208 25.3472 30.5895Z" fill="#777777"/>
<path d="M29.6715 13.5606C29.9003 13.7862 29.9863 14.1198 29.896 14.4281C29.9465 14.2066 28.6351 19.7264 28.4879 20.3715C28.3231 20.9313 27.5555 21.1702 27.1023 20.8027C27.393 21.0699 22.7763 16.8287 22.6257 16.6905C22.3765 16.4881 22.258 16.1647 22.3184 15.8488C22.379 15.5329 22.6084 15.276 22.9159 15.1803L24.2263 14.7725C23.4166 13.5329 22.3398 12.5225 21.101 11.7907L22.907 10.8402L22.9419 8.80743C24.8836 9.97206 26.5293 11.6414 27.6613 13.7036L28.8001 13.3492C29.1076 13.2535 29.4423 13.3348 29.6715 13.5606Z" fill="#777777"/>
</svg>
